<svg height="219" viewBox="0 0 295 219" width="295" xmlns="http://www.w3.org/2000/svg"><g fill="none" fill-rule="evenodd"><path d="m83.0767546 79.1787475c9.8256853-17.4540406 29.1112424-29.3265308 51.3215994-29.3265308 22.31463 0 41.677111 11.9966759 51.444676 29.5987186 2.172659-.5545826 4.441046-.8812079 6.786355-.8812079 8.936793 0 16.813752 4.2682444 21.562491 10.7667274 6.427379-10.3516411 18.213757-17.3060385 31.735186-17.3060385 20.386416 0 36.930081 15.7834882 36.930081 35.2602237h-255.7635469c.4068394-18.7333227 16.4103304-33.8091227 36.119821-33.8091227 7.3350758 0 14.1590382 2.1060529 19.8633375 5.6972302" fill="#e0e0e0"/><g transform="translate(9.753695 30.344828)"><path d="m68.6333273 137.142857c37.9051397 0 68.6333277-30.700474 68.6333277-68.5714284 0-37.8709543-30.728188-68.5714286-68.6333277-68.5714286-37.90514 0-68.6333273 30.7004743-68.6333273 68.5714286 0 37.8709544 30.7281873 68.5714284 68.6333273 68.5714284z" stroke="#979797" stroke-dasharray="5 8"/><g transform="translate(58.6243 68.571429)"><path d="m178.988462 0h-145.7183965c-3.350729.8667912-4.5188585 3.22619686-4.5188585 6.54860754v101.67070746c0 3.322411 1.4913305 6.630519 4.5188585 6.630519h145.7183965c3.027528 0 5.01041-3.308108 5.01041-6.630519v-101.67070746c0-3.32241068-2.30648-5.68181634-5.01041-6.54860754" fill="#414141"/><path d="m48.9378255 44.3621436h40.7469509v-3.704502h-40.7469509z" fill="#607d8b"/><path d="m35.4489405 31.2916199h47.0682695v-4.3894424h-47.0682695z" fill="#455a64"/><path d="m35.4489405 52.4640009h47.0682695v-4.3894424h-47.0682695z" fill="#607d8b"/><path d="m35.4489405 41.9338337h22.646899v-4.3894424h-22.646899z" fill="#455a64"/><path d="m35.4489405 63.3644917h22.646899v-4.3894424h-22.646899z" fill="#455a64"/><path d="m65.1297213 41.9338337h48.2818337v-4.3894424h-48.2818337z" fill="#607d8b"/><path d="m35.3524607 101.308693h142.2588343v-95.06550772h-142.2588343z" fill="#fff"/><path d="m123.113663 119.618382h-116.11866227c-6.8300243 0-6.99500073-7.33481-6.99500073-7.33481v-4.14676h97.985736 115.782719v4.14676c-.069247 0-.164977 7.33481-6.995001 7.33481z" fill="#9d9d9d"/></g><g transform="translate(100.090269 78.571429)"><path d="m0 87.1428571h131.547211v-87.1428571h-131.547211z" fill="#e0dedc"/><path d="m0 4.28571429h131.547211v-4.28571429h-131.547211z" fill="#4285f4"/><path d="m20.0180538 14.2857143h102.9499912v-5.71428573h-102.9499912z" fill="#f5f5f5"/><path d="m7.14930493 14.2857143h5.71944397v-5.71428573h-5.71944397z" fill="#4285f4"/><path d="m20.0180538 24.2857143h102.9499912v-5.7142857h-102.9499912z" fill="#f5f5f5"/><path d="m7.14930493 24.2857143h5.71944397v-5.7142857h-5.71944397z" fill="#4285f4"/><g fill="#f5f5f5"><path d="m20.0180538 34.2857143h102.9499912v-5.7142857h-102.9499912z"/><path d="m7.14930493 34.2857143h5.71944397v-5.7142857h-5.71944397z"/><path d="m20.0180538 44.2857143h102.9499912v-5.7142857h-102.9499912z"/></g><path d="m7.14930493 44.2857143h5.71944397v-5.7142857h-5.71944397z" fill="#4285f4"/><path d="m20.0180538 52.8571429h102.9499912v-5.7142858h-102.9499912z" fill="#f5f5f5"/><path d="m7.14930493 52.8571429h5.71944397v-5.7142858h-5.71944397z" fill="#f5f5f5"/><path d="m20.0180538 62.8571429h102.9499912v-5.7142858h-102.9499912z" fill="#f5f5f5"/><path d="m7.14930493 62.8571429h5.71944397v-5.7142858h-5.71944397z" fill="#4285f4"/><path d="m20.0180538 82.8571429h102.9499912v-5.7142858h-102.9499912z" fill="#f5f5f5"/><path d="m7.14930493 82.8571429h5.71944397v-5.7142858h-5.71944397z" fill="#4285f4"/><path d="m20.0180538 72.8571429h102.9499912v-5.7142858h-102.9499912z" fill="#f5f5f5"/><path d="m7.14930493 72.8571429h5.71944397v-5.7142858h-5.71944397z" fill="#f5f5f5"/></g></g><g transform="translate(48.768473)"><path d="m.00356483 8.91022545v16.19521735c0 5.0300603-.10170764 10.0317007.78140524 15.0096577 1.00923035 5.6895714 3.02914402 11.1707295 5.80895904 16.2827063 5.69155939 10.4658022 14.66595059 18.9143421 25.89708909 23.7992375 11.2317196-4.8848954 20.2078545-13.3334353 25.8997044-23.7992375 2.7795245-5.1119768 4.8168737-10.5931349 5.8261041-16.2827063.8831128-4.977957.8061056-9.9795974.8061056-15.0096577v-16.19521735l-32.509829-8.91022545z" fill="#fff"/><path d="m5.78297746 12.0927175v14.1708151c0 4.4013029-.08588645 8.7777382.65985332 13.1334506.85223896 4.9783749 2.55794384 9.7743883 4.90534322 14.247368 4.8062056 9.1575769 12.3845805 16.5500493 21.868653 20.8243328 9.4845632-4.2742835 17.0644104-11.6667559 21.8708615-20.8243328 2.3471539-4.4729797 4.0675822-9.2689931 4.9198212-14.247368.7457397-4.3557124.6807114-8.7321477.6807114-13.1334506v-14.1708151l-27.4527445-7.79644727z" fill="#4285f4"/><ellipse cx="32.512315" cy="36.518297" fill="#4054a5" rx="18.062397" ry="17.901126"/><ellipse cx="32.512315" cy="30.789937" fill="#fff" rx="5.057471" ry="5.012315"/><path d="m30.594476 32.9380718h3.8356785l1.6946402 14.3209008h-7.2249589z" fill="#fafafa"/></g><g fill-rule="nonzero" transform="translate(0 92.118227)"><path d="m72.8096286 29.6662982-15.1415048-26.28702982c-1.1586068-2.05101249-3.3182146-3.33661692-5.6766249-3.37926838h-30.2887667c-2.358742.04149074-4.5188835 1.32741295-5.676625 3.37926838l-15.14726194 26.21806522c-1.17179368 2.0354604-1.17179368 4.5391706 0 6.574631l15.14150474 26.4364533c1.1458745 2.0801699 3.3002693 3.4084747 5.676625 3.4999565h30.2887667c2.3762296-.0814214 4.5344929-1.4042146 5.6823821-3.4827154l15.1415048-26.2870298c1.1799369-2.0681675 1.1799369-4.6041635 0-6.672331z" fill="#4285f4"/><path d="m57.1241534 32.6687431-.3958223-.1180024-20.0205783-19.6164935-4.1073737 5.8832623 3.4419333 3.371497-8.7597201 3.1242539-3.4419332 8.5298875-3.3616215-3.2928288-6.0291197 5.2145821 30.9773991 30.3434732h5.4038352c2.367698-.0796095 4.5182122-1.3729656 5.6619801-3.405212l11.4214818-19.4703953z" fill="#000" opacity=".07"/><g fill="#fff" transform="translate(15.89491 11.497109)"><path d="m21.6748768 8.48147355c-7.245426 0-13.11900436 5.82250375-13.11900436 13.00492615 0 7.1824223 5.87357836 13.0049261 13.11900436 13.0049261 7.2454261 0 13.1190045-5.8225038 13.1190045-13.0049261 0-3.4491209-1.3821769-6.7569747-3.8424675-9.1958715-2.4602905-2.43889673-5.7971607-3.80905465-9.276537-3.80905465m0 22.91694155c-5.5074421.0031072-9.97553-4.418556-9.9818185-9.8781047-.0062886-5.4595486 4.4516017-9.8913151 9.9590366-9.9006755s9.9806288 4.4072268 9.9932253 9.8667648c.0015133 2.6223113-1.048273 5.1377331-2.9182578 6.9925178-1.8699849 1.8547846-4.406871 2.8968807-7.0521856 2.8968803"/><path d="m42.2888255 19.9427715-5.4814623-1.6962947c.2335094 1.064477.3520581 2.1505692.3536428 3.2399229-.0001714.7664647-.0573657 1.5318733-.1711175 2.2899978h5.3046409c.4489034-.0684729.7886931-.4382848.8156599-.8877275v-2.0525166c-.0269668-.4494428-.3667565-.8192547-.8156599-.8877276"/><path d="m21.6748768 6.13493253c1.0791849.00095456 2.1553657.11275303 3.2113042.33360463l-1.9678507-5.41118012c-.0695374-.44697382-.4456444-.78441444-.9012186-.80856715h-.8213637c-.4564741.02200256-.8337499.36049183-.9012186.80856715l-1.7111745 5.38856286c1.0139036-.20308625 2.04572-.30537067 3.0801141-.30533305"/><path d="m6.18874773 21.4863997c-.00110037-1.0929319.11554057-2.1828554.34793881-3.2512316l-5.48146227 1.6962947c-.45089464.0689328-.79129527.4417693-.81565984.8933819v2.0525166c.02696678.4494428.36675646.8192546.81565984.8877276h5.30464091c-.11456668-.7580345-.17176545-1.5235032-.17111745-2.2899979"/><path d="m26.3691989 17.2343543-1.2719731 1.2326408c-1.8781406-1.6353275-4.7152069-1.5413505-6.4790325.214616-1.7638256 1.7559666-1.8465174 4.5687382-.1888441 6.4235506l-1.2434534 1.2326408c1.6404391 1.6261745 4.0314312 2.2612679 6.2723127 1.6660468 2.2408815-.5952212 3.9912092-2.3303286 4.5916515-4.5517242.6004424-2.2213956-.040222-4.5915964-1.6806611-6.2177708m-2.5667618 6.3611051c-.8608831.8550089-2.1567003 1.1114666-3.2827808.6497015-1.1260805-.461765-1.8604646-1.5507352-1.8604646-2.7587612 0-1.2080261.7343841-2.2969962 1.8604646-2.7587613s2.4218977-.2053074 3.2827808.6497015c.5692091.5567429.8896325 1.3163737.8896325 2.1090598s-.3204234 1.5523169-.8896325 2.1090597"/></g></g><g fill-rule="nonzero" transform="translate(65.024631 132.216749)"><path d="m72.8096286 29.6662982-15.1415048-26.28702982c-1.1586068-2.05101249-3.3182146-3.33661692-5.6766249-3.37926838h-30.2887667c-2.358742.04149074-4.5188835 1.32741295-5.676625 3.37926838l-15.14726194 26.21806522c-1.17179368 2.0354604-1.17179368 4.5391706 0 6.574631l15.14150474 26.4364533c1.1458745 2.0801699 3.3002693 3.4084747 5.676625 3.4999565h30.2887667c2.3762296-.0814214 4.5344929-1.4042146 5.6823821-3.4827154l15.1415048-26.2870298c1.1799369-2.0681675 1.1799369-4.6041635 0-6.672331z" fill="#4285f4"/><path d="m67.9146141 43.7373846-24.4078633-25.0372323-1.7482527 3.8865835-3.8123188-3.9039343-1.7595317 3.8692327-3.7559235-3.8576655-.9361611 4.673154-3.3498778.5783606-.6936615 3.0537442-4.3311551 1.0641836 3.8799931 3.9791213-3.8405164 1.7350819 3.8405164 3.938636-3.8630745 1.7292983 25.9982093 26.6624258h2.6392976c2.3276498-.0819393 4.4417893-1.4131455 5.566211-3.5048655z" fill="#000" opacity=".07"/><g fill="#fff"><path d="m39.8467748 30.17991h-5.9780115c-.3489354.0028229-.6311035.2824437-.6339521.628229v5.924043c-.0000118.3478111.2829842.63057.6339521.6334209h5.9780115c.3427453-.0139317.6132833-.2934844.6129951-.6334209v-5.924043c-.0028486-.3457853-.2850168-.6254061-.6339522-.628229"/><path d="m49.9292318 28.5239368c.1699999.0031041.3341165-.0619238.4554328-.1804562s.1896452-.280616.1896166-.4497911v-1.0292111c0-.348076-.2835949-.6302473-.6334269-.6302473h-3.2368698v-3.0182484c-.0031596-.3850865-.3161326-.6964886-.703162-.6996323h-3.0276645v-3.2032751c0-.348076-.2835949-.6302473-.633427-.6302473h-1.0344036c-.3407222.0124491-.6104116.2910071-.6101819.6302473v3.2206214h-3.4286413v-3.2206214c.0000072-.1681586-.0675258-.329347-.1875763-.4477089-.1200504-.1183619-.282662-.1840811-.4516618-.1825384h-1.0227812c-.349832 0-.6334269.2821713-.6334269.6302473v3.2206214h-3.4053962v-3.2206214c0-.348076-.2835949-.6302473-.6334269-.6302473h-1.0344037c-.1679952 0-.3291099.0664009-.4479004.1845952-.1187906.1181943-.1855265.2785001-.1855265.4456521v3.2206214h-3.0218533c-.3826541-.0002047-.6964273.3017574-.7089733.682286v3.0009022h-3.2252472c-.3498321 0-.633427.2821713-.633427.6302472v1.0292112c0 .167152.0667359.3274578.1855265.4456521s.2799052.1845952.4479005.1845952h3.2252472v3.3825197h-3.2252472c-.3498321 0-.633427.2821713-.633427.6302473v1.0465574c-.0015505.1681515.0645003.3299468.1834593.4493946.1189591.1194478.2809607.1866418.4499677.1866348h3.2252472v3.3883018h-3.2252472c-.3498321 0-.633427.2821713-.633427.6302473v1.0292111c0 .167152.0667359.3274579.1855265.4456522.1187906.1181942.2799052.1845951.4479005.1845951h3.2252472v2.9951201c.0031596.3850865.3161327.6964885.7031621.6996323h3.0276645v3.2206214c0 .3480759.2835949.6302472.6334269.6302472h1.0344037c.1679952 0 .3291098-.0664008.4479004-.1845951s.1855265-.2785002.1855265-.4456521v-3.2206214h3.4053962v3.2206214c0 .3480759.2835949.6302472.6334269.6302472h1.0227812c.349832 0 .6334269-.2821713.6334269-.6302472v-3.2206214h3.4344525v3.2206214c0 .3480759.2835949.6302472.6334269.6302472h1.0344036c.3498321 0 .633427-.2821713.633427-.6302472v-3.2206214h3.0276645c.3779238-.0154137.677134-.3233001.679917-.6996323v-3.0009022h3.2252473c.1699999.0031042.3341165-.0619238.4554328-.1804562s.1896452-.280616.1896166-.4497911v-1.0292111c0-.348076-.2835949-.6302473-.6334269-.6302473h-3.2368698v-3.3825197h3.2252473c.1710125.00313.3360288-.0626849.4575194-.1824766.1214905-.1197918.1891281-.2833774.18753-.4535528v-1.0234291c.006422-.1731486-.0590827-.341291-.1811145-.4648979-.1220317-.1236069-.2898258-.1917747-.4639349-.1884777h-3.2252473v-3.3651735zm-5.6078624 12.7205872h-16.4109878v-16.3517366h16.4109878z"/></g></g><g transform="matrix(.05233596 -.99862953 .99862953 .05233596 223.215181 147.338456)"><path d="m21.5095009 52.99297-4.129302-3.5320393 10.2021739-12.207038 4.1293021 3.5320393z" fill="#bcbec0"/><path d="m29.3724765 43.5039338-7.165738.118691 3.459936-4.2924756z" fill="#9e9e9e"/><path d="m6.27921728 27.0057907-5.70214597-4.7640339c-.30105273-.2516116-.33890752-.6969605-.08428048-.994448l17.81567957-20.82165119c.2549842-.29784034.7056705-.33524683 1.0067232-.08328237l5.702146 4.76368099c.3010527.25196446.3389075.6973134.0842805.99480085l-17.81567961 20.82165122c-.25498416.2978403-.70567047.3348939-1.00672321.0832824" fill="#bcbec0" transform="translate(.798182 43.560575)"/><path d="m64.6067019 19.6241357-3.8179246.7714004 3.8179246-.7717563c-.2486943-1.3035848-.608419-2.5979141-1.0687975-3.8473905-2.1721839-5.8928294-6.444261-10.56252475-12.0289875-13.1486916-5.5847264-2.58616684-11.8138444-2.77910592-17.5400395-.5435756-5.0911426 1.98777091-9.3376239 5.78390074-11.9566966 10.6888963-2.5886345 4.8476835-3.4467856 10.4927535-2.4163817 15.8954038.2486943 1.3028727.6080731 2.5972021 1.0687975 3.8470344 2.1721839 5.8928295 6.444261 10.5625248 12.0289875 13.1483357 5.5847264 2.5861668 11.8141903 2.7794619 17.5400395.5439316 5.0907967-1.987771 9.337278-5.7839008 11.9566966-10.6888964 2.5886345-4.8473274 3.4467855-10.4923975 2.4163817-15.8946918m-3.8179246.7703324c1.7550416 9.1998481-3.1313346 18.6317926-11.9352515 22.0694544-9.83017 3.8377791-20.8218359-1.2523241-24.5512129-11.3688108-.3891253-1.0561813-.6838229-2.1258897-.8882433-3.1980899-1.7546958-9.199492 3.1309887-18.6317925 11.9349056-22.06909836 9.83017-3.83777905 20.8218359 1.25232415 24.5512129 11.36881086.3891253 1.0558253.6838228 2.1255336.8885892 3.1977338" fill="#bcbec0"/><path d="m61.0511594 19.7338235c1.783226 9.0680049-3.1816211 18.3647802-12.126921 21.752826-9.9880338 3.7831307-21.156216-1.2340262-24.945132-11.2058843-.3957257-1.0406943-.6951559-2.0950727-.9028592-3.1519072-1.7828746-9.068005 3.1812696-18.36478024 12.1265695-21.75282605 9.9880338-3.78277983 21.156216 1.23402621 24.9454834 11.20588435.3953744 1.0406943.6948045 2.0950726.9028593 3.1519072" fill="#fff" opacity=".65"/></g></g></svg>